<?xml version="1.0" standalone="no"?>
<!DOCTYPE svg PUBLIC "-//W3C//DTD SVG 20010904//EN"
 "http://www.w3.org/TR/2001/REC-SVG-20010904/DTD/svg10.dtd">
<svg version="1.0" xmlns="http://www.w3.org/2000/svg"
 width="200.000000pt" height="200.000000pt" viewBox="0 0 200.000000 200.000000"
 preserveAspectRatio="xMidYMid meet">
<metadata>
Created by potrace 1.14, written by Peter Selinger 2001-2017
</metadata>
<g transform="translate(0.000000,200.000000) scale(0.100000,-0.100000)"
fill="#000000" stroke="none">
<path d="M697 1672 l-278 -117 0 -272 c0 -150 2 -273 3 -274 2 0 20 2 40 6
l38 7 2 237 3 236 235 102 c129 56 242 102 251 102 9 1 110 -37 225 -84 115
-47 233 -96 262 -107 l52 -22 0 -231 0 -231 35 -17 c20 -9 38 -17 40 -17 3 0
5 128 5 283 l0 284 -107 40 c-60 23 -191 73 -292 113 -102 39 -196 73 -210 75
-17 3 -120 -36 -304 -113z"/>
<path d="M623 1498 l-32 -11 -3 -228 c-2 -126 0 -229 4 -229 4 0 23 8 43 17
l35 17 0 223 c0 123 -3 223 -7 222 -5 -1 -22 -6 -40 -11z"/>
<path d="M1340 1287 l0 -223 35 -17 c20 -9 39 -17 43 -17 4 0 6 103 4 229 l-3
229 -31 11 c-17 6 -35 11 -39 11 -5 0 -9 -100 -9 -223z"/>
<path d="M882 1448 l3 -43 48 -3 47 -3 0 45 0 46 -51 0 -50 0 3 -42z"/>
<path d="M1040 1445 l0 -45 45 0 45 0 0 45 0 45 -45 0 -45 0 0 -45z"/>
<path d="M882 1308 l3 -43 48 -3 47 -3 0 45 0 46 -51 0 -50 0 3 -42z"/>
<path d="M1040 1305 l0 -45 45 0 45 0 0 45 0 45 -45 0 -45 0 0 -45z"/>
<path d="M612 981 c-200 -77 -366 -142 -369 -145 -3 -3 15 -15 41 -28 l46 -22
0 -151 c0 -95 -4 -155 -11 -162 -6 -6 -9 -23 -7 -39 2 -23 9 -30 31 -32 50 -6
74 33 42 68 -13 14 -15 43 -13 158 l3 141 118 -51 117 -50 0 -55 c0 -49 2 -54
18 -48 123 50 251 75 383 75 100 0 257 -25 338 -54 24 -9 47 -16 52 -16 5 0 9
25 9 56 l0 55 -47 21 c-45 20 -179 36 -316 37 -41 1 -48 4 -45 19 2 12 19 20
58 29 115 24 247 11 387 -38 l62 -22 123 42 c68 24 126 46 130 50 4 4 -38 24
-95 45 -56 22 -223 86 -371 143 -148 57 -280 106 -295 108 -17 3 -149 -42
-389 -134z"/>
</g>
</svg>
